<svg width="20" height="20" viewBox="0 0 20 20" fill="none" xmlns="http://www.w3.org/2000/svg">
<path d="M20 1.11607V18.8839C20 19.1964 19.8661 19.4643 19.6875 19.6875C19.4643 19.9107 19.1964 20 18.8839 20H13.7946V12.2321H16.3839L16.7857 9.24107H13.7946V7.32143C13.7946 6.83036 13.8839 6.47321 14.0625 6.25C14.2857 5.98214 14.6875 5.84821 15.2679 5.84821H16.875V3.125C16.25 3.08036 15.4464 3.03571 14.5536 3.03571C13.3929 3.03571 12.4554 3.39286 11.7411 4.0625C11.0268 4.77679 10.6696 5.75893 10.6696 7.00893V9.24107H8.08036V12.2321H10.6696V20H1.11607C0.758929 20 0.491071 19.9107 0.3125 19.6875C0.0892857 19.4643 0 19.1964 0 18.8839V1.11607C0 0.803571 0.0892857 0.535714 0.3125 0.3125C0.491071 0.133929 0.758929 0 1.11607 0H18.8839C19.1518 0 19.4196 0.133929 19.6429 0.3125C19.8661 0.535714 20 0.803571 20 1.11607Z" fill="#FFFAF0"/>
</svg>
