<svg width="11" height="19" viewBox="0 0 11 19" fill="none" xmlns="http://www.w3.org/2000/svg">
<g clip-path="url(#clip0_63_863)">
<path d="M10.1333 3.1592H8.01905C7.76229 3.1592 7.27772 3.30388 7.06667 3.45598C6.83429 3.6244 6.59048 4.08739 6.59048 4.36488V6.94317H9.96191C9.97562 6.94317 10.0259 6.99659 10.0114 7.02701L9.56191 10.3191H6.59048V19H3.00952V10.3747C3.00952 10.371 2.95619 10.3191 2.95238 10.3191H0V6.94317H3.00952C3.0781 5.08012 2.65448 2.9611 3.98019 1.41486C5.49638 -0.352478 7.92457 -0.0193395 10.0381 0.11718C10.0693 0.116438 10.1333 0.152052 10.1333 0.172827V3.1592Z" fill="white"/>
</g>
<defs>
<clipPath id="clip0_63_863">
<rect width="10.1333" height="19" fill="white"/>
</clipPath>
</defs>
</svg>
