<svg width="14" height="8" viewBox="0 0 14 8" fill="none" xmlns="http://www.w3.org/2000/svg">
<path d="M0.5 3.18198C0.223858 3.18198 0 3.40583 0 3.68198C0 3.95812 0.223858 4.18198 0.5 4.18198V3.68198V3.18198ZM13.8536 4.03553C14.0488 3.84027 14.0488 3.52369 13.8536 3.32842L10.6716 0.146442C10.4763 -0.0488198 10.1597 -0.0488198 9.96447 0.146442C9.7692 0.341705 9.7692 0.658287 9.96447 0.853549L12.7929 3.68198L9.96447 6.5104C9.7692 6.70567 9.7692 7.02225 9.96447 7.21751C10.1597 7.41277 10.4763 7.41277 10.6716 7.21751L13.8536 4.03553ZM0.5 3.68198V4.18198H13.5V3.68198V3.18198H0.5V3.68198Z" fill="white"/>
</svg>
