<svg width="18" height="19" viewBox="0 0 18 19" fill="none" xmlns="http://www.w3.org/2000/svg">
<g clip-path="url(#clip0_63_865)">
<path d="M12.5442 0C12.5388 2.4194 14.5679 4.52968 17.114 4.75483C17.2073 4.763 17.6427 4.72139 17.6427 4.8113V7.83927C16.0771 7.88756 14.5397 7.42687 13.2141 6.66598L12.5442 6.24169C12.5529 8.01909 12.5333 9.79722 12.5419 11.5746C12.5529 13.699 12.6494 15.2342 11.0736 16.9417C7.08424 21.2648 -0.575144 18.2889 0.0343128 12.5399C0.389633 9.18792 3.74988 6.79007 7.24974 7.31912V10.44C6.53832 10.2951 5.92102 10.2654 5.2292 10.5135C2.86276 11.3614 2.6698 14.4926 4.90996 15.6109C6.72578 16.5174 9.08988 15.3858 9.25146 13.4323C9.32441 12.5525 9.28048 11.4394 9.29146 10.5351C9.33225 7.02487 9.25695 3.51095 9.28989 0.000743058H12.545L12.5442 0Z" fill="white"/>
</g>
<defs>
<clipPath id="clip0_63_865">
<rect width="17.6429" height="19" fill="white"/>
</clipPath>
</defs>
</svg>
