<svg width="18" height="18" viewBox="0 0 18 18" fill="none" xmlns="http://www.w3.org/2000/svg">
<g clip-path="url(#clip0_63_860)">
<path d="M3.73502 0.072216C7.02765 0.188452 10.4783 -0.123422 13.7537 0.0583003C15.8503 0.174537 17.4246 1.71262 17.5785 3.8057C17.427 7.08079 17.7815 10.5401 17.5809 13.7939C17.4532 15.8648 15.8994 17.4316 13.8331 17.5773C10.5577 17.4258 7.09805 17.7803 3.8439 17.5797C1.77434 17.452 0.203344 15.8984 0.0600791 13.8323C0.196794 10.5605 -0.122481 7.13972 0.0576231 3.8851C0.170597 1.83541 1.67201 0.230199 3.73502 0.072216ZM14.3751 1.8305C13.1201 2.02777 13.1152 3.98415 14.3685 4.15032C16.2752 4.40325 16.1646 1.54973 14.3751 1.8305ZM8.52333 3.18277C4.18037 3.4267 1.68511 8.3201 4.13534 11.9668C6.50289 15.4899 11.7906 15.2141 13.7922 11.4806C15.8601 7.62514 12.8737 2.93884 8.52333 3.18359V3.18277Z" fill="white"/>
<path d="M8.6462 5.59865C10.6953 5.47423 12.3449 7.34387 11.9994 9.36085C11.5107 12.2177 7.74731 13.0273 6.14111 10.6166C4.75021 8.52999 6.1583 5.75009 8.6462 5.59865Z" fill="white"/>
</g>
<defs>
<clipPath id="clip0_63_860">
<rect width="17.6428" height="17.6426" fill="white"/>
</clipPath>
</defs>
</svg>
