<svg width="19" height="8" viewBox="0 0 19 8" fill="none" xmlns="http://www.w3.org/2000/svg">
<path d="M0.5 3.18213C0.223858 3.18213 0 3.40599 0 3.68213C0 3.95827 0.223858 4.18213 0.5 4.18213V3.68213V3.18213ZM18.8536 4.03568C19.0488 3.84042 19.0488 3.52384 18.8536 3.32858L15.6716 0.146595C15.4763 -0.0486672 15.1597 -0.0486672 14.9645 0.146595C14.7692 0.341857 14.7692 0.65844 14.9645 0.853702L17.7929 3.68213L14.9645 6.51056C14.7692 6.70582 14.7692 7.0224 14.9645 7.21766C15.1597 7.41293 15.4763 7.41293 15.6716 7.21766L18.8536 4.03568ZM0.5 3.68213V4.18213H18.5V3.68213V3.18213H0.5V3.68213Z" fill="#F0FF00"/>
</svg>
