<svg width="20" height="20" viewBox="0 0 20 20" fill="none" xmlns="http://www.w3.org/2000/svg">
<path d="M19.5971 5.1875C19.7436 5.84375 19.8901 6.86458 19.9634 8.17708L20 10L19.9634 11.8229C19.8901 13.2083 19.7436 14.1927 19.5971 14.849C19.4505 15.2865 19.2308 15.651 18.9377 15.9427C18.6081 16.2708 18.2418 16.4896 17.8022 16.599C17.1429 16.7812 15.6777 16.8906 13.3333 16.9635L10 17L6.66667 16.9635C4.32234 16.8906 2.82051 16.7812 2.1978 16.599C1.75824 16.4896 1.35531 16.2708 1.06227 15.9427C0.732601 15.651 0.51282 15.2865 0.40293 14.849C0.21978 14.1927 0.10989 13.2083 0.03663 11.8229L0 10C0 9.48958 0 8.86979 0.03663 8.17708C0.10989 6.86458 0.21978 5.84375 0.40293 5.1875C0.51282 4.75 0.732601 4.38542 1.06227 4.05729C1.35531 3.76562 1.75824 3.54688 2.1978 3.40104C2.82051 3.25521 4.32234 3.10938 6.66667 3.03646L10 3L13.3333 3.03646C15.6777 3.10938 17.1429 3.25521 17.8022 3.40104C18.2418 3.54688 18.6081 3.76562 18.9377 4.05729C19.2308 4.38542 19.4505 4.75 19.5971 5.1875ZM7.94872 12.9896L13.1868 10L7.94872 7.04688V12.9896Z" fill="#FFFAF0"/>
</svg>
