<svg width="20" height="20" viewBox="0 0 20 20" fill="none" xmlns="http://www.w3.org/2000/svg">
<path d="M10 4.86607C10.8929 4.86607 11.7411 5.13393 12.5446 5.58036C13.3482 6.02679 13.9732 6.65179 14.4196 7.45536C14.8661 8.25893 15.1339 9.10714 15.1339 10C15.1339 10.9375 14.8661 11.7857 14.4196 12.5893C13.9732 13.3929 13.3482 14.0179 12.5446 14.4643C11.7411 14.9107 10.8929 15.1339 10 15.1339C9.0625 15.1339 8.21429 14.9107 7.41071 14.4643C6.60714 14.0179 5.98214 13.3929 5.53571 12.5893C5.08929 11.7857 4.86607 10.9375 4.86607 10C4.86607 9.10714 5.08929 8.25893 5.53571 7.45536C5.98214 6.65179 6.60714 6.02679 7.41071 5.58036C8.21429 5.13393 9.0625 4.86607 10 4.86607ZM10 13.3482C10.8929 13.3482 11.6964 13.0357 12.3661 12.3661C12.9911 11.7411 13.3482 10.9375 13.3482 10C13.3482 9.10714 12.9911 8.30357 12.3661 7.63393C11.6964 7.00893 10.8929 6.65179 10 6.65179C9.0625 6.65179 8.25893 7.00893 7.63393 7.63393C6.96429 8.30357 6.65179 9.10714 6.65179 10C6.65179 10.9375 6.96429 11.7411 7.63393 12.3661C8.25893 13.0357 9.0625 13.3482 10 13.3482ZM16.5625 4.64286C16.5625 4.33036 16.4286 4.0625 16.2054 3.79464C15.9375 3.57143 15.6696 3.4375 15.3571 3.4375C15 3.4375 14.7321 3.57143 14.5089 3.79464C14.2411 4.0625 14.1518 4.33036 14.1518 4.64286C14.1518 5 14.2411 5.26786 14.5089 5.49107C14.7321 5.75893 15 5.84821 15.3571 5.84821C15.6696 5.84821 15.9375 5.75893 16.1607 5.49107C16.3839 5.26786 16.5179 5 16.5625 4.64286ZM19.9554 5.84821C19.9554 6.69643 20 8.08036 20 10C20 11.9643 19.9554 13.3482 19.9107 14.1964C19.8661 15.0446 19.7321 15.7589 19.5536 16.3839C19.2857 17.1429 18.8393 17.8125 18.3036 18.3482C17.7679 18.8839 17.0982 19.2857 16.3839 19.5536C15.7589 19.7768 15 19.9107 14.1518 19.9554C13.3036 20 11.9196 20 10 20C8.03571 20 6.65179 20 5.80357 19.9554C4.95536 19.9107 4.24107 19.7768 3.61607 19.5089C2.85714 19.2857 2.1875 18.8839 1.65179 18.3482C1.11607 17.8125 0.714286 17.1429 0.446429 16.3839C0.223214 15.7589 0.0892857 15.0446 0.0446429 14.1964C0 13.3482 0 11.9643 0 10C0 8.08036 0 6.69643 0.0446429 5.84821C0.0892857 5 0.223214 4.24107 0.446429 3.61607C0.714286 2.90179 1.11607 2.23214 1.65179 1.69643C2.1875 1.16071 2.85714 0.714286 3.61607 0.446429C4.24107 0.267857 4.95536 0.133929 5.80357 0.0892857C6.65179 0.0446429 8.03571 0 10 0C11.9196 0 13.3036 0.0446429 14.1518 0.0892857C15 0.133929 15.7589 0.267857 16.3839 0.446429C17.0982 0.714286 17.7679 1.16071 18.3036 1.69643C18.8393 2.23214 19.2857 2.90179 19.5536 3.61607C19.7321 4.24107 19.8661 5 19.9554 5.84821ZM17.8125 15.8929C17.9911 15.4018 18.0804 14.5982 18.1696 13.4821C18.1696 12.8571 18.2143 11.9196 18.2143 10.7143V9.28571C18.2143 8.08036 18.1696 7.14286 18.1696 6.51786C18.0804 5.40179 17.9911 4.59821 17.8125 4.10714C17.4554 3.21429 16.7857 2.54464 15.8929 2.1875C15.4018 2.00893 14.5982 1.91964 13.4821 1.83036C12.8125 1.83036 11.875 1.78571 10.7143 1.78571H9.28571C8.08036 1.78571 7.14286 1.83036 6.51786 1.83036C5.40179 1.91964 4.59821 2.00893 4.10714 2.1875C3.16964 2.54464 2.54464 3.21429 2.1875 4.10714C2.00893 4.59821 1.875 5.40179 1.83036 6.51786C1.78571 7.1875 1.78571 8.125 1.78571 9.28571V10.7143C1.78571 11.9196 1.78571 12.8571 1.83036 13.4821C1.875 14.5982 2.00893 15.4018 2.1875 15.8929C2.54464 16.8304 3.21429 17.4554 4.10714 17.8125C4.59821 17.9911 5.40179 18.125 6.51786 18.1696C7.14286 18.2143 8.08036 18.2143 9.28571 18.2143H10.7143C11.9196 18.2143 12.8571 18.2143 13.4821 18.1696C14.5982 18.125 15.4018 17.9911 15.8929 17.8125C16.7857 17.4554 17.4554 16.7857 17.8125 15.8929Z" fill="#FFFAF0"/>
</svg>
